<svg width="84" height="78" viewBox="0 0 84 78" fill="none" xmlns="http://www.w3.org/2000/svg"><path fill-rule="evenodd" clip-rule="evenodd" d="M59.56 0C73.037 0 84 10.89 84 24.275h-.004v17.282h-.003l.001.057.002.056c0 3.774-3.082 6.835-6.881 6.835-3.8 0-6.882-3.06-6.882-6.835 0-.038.003-.075.003-.113h-.003V24.275c0-5.85-4.791-10.606-10.678-10.606-5.887 0-10.676 4.759-10.676 10.606v29.45C48.879 67.111 37.915 78 24.439 78 11.828 78 1.42 68.466.131 56.275h.012a6.428 6.428 0 01-.018-.468c0-3.771 3.079-6.83 6.876-6.83 3.535 0 6.444 2.649 6.832 6.055h.009c.65 5.233 5.155 9.3 10.598 9.3 5.889 0 10.678-4.76 10.678-10.607v-7.619A24.453 24.453 0 0124.44 48.55C10.963 48.55 0 37.66 0 24.275 0 10.889 10.963 0 24.44 0A24.444 24.444 0 0142 7.414C46.448 2.849 52.674 0 59.56 0zM13.761 24.273c0 5.849 4.792 10.605 10.678 10.605 5.887 0 10.679-4.756 10.679-10.605 0-5.85-4.792-10.607-10.678-10.607-5.89 0-10.679 4.757-10.679 10.607z" fill="#fff"/><path d="M0 23.932c0 13.563 10.93 24.597 24.366 24.597 3.815 0 7.426-.892 10.643-2.476v-22.12c0 5.925-4.774 10.745-10.643 10.745-5.87 0-10.646-4.82-10.646-10.746" fill="url(#paint0_linear_119_76)"/><path d="M84 24.396C84 10.944 73.037 0 59.56 0 52.673 0 46.447 2.863 42 7.451c4.255 4.393 6.881 10.366 6.881 16.945 0-5.876 4.79-10.657 10.678-10.657 5.89 0 10.679 4.781 10.679 10.657v17.369h.002l-.002.116c0 3.795 3.081 6.869 6.88 6.869 3.8 0 6.882-3.076 6.882-6.869l-.002-.116H84V24.396z" fill="url(#paint1_linear_119_76)"/><defs><linearGradient id="paint0_linear_119_76" x1="-8.963" y1="41.22" x2="24.249" y2="60.696" gradientUnits="userSpaceOnUse"><stop stop-color="#fff"/><stop offset=".332" stop-color="#FDFDFD"/><stop offset=".489" stop-color="#F5F5F5"/><stop offset=".609" stop-color="#E8E8E8"/><stop offset=".711" stop-color="#D6D6D6"/><stop offset=".801" stop-color="#BEBEBE"/><stop offset=".882" stop-color="#A1A1A1"/><stop offset=".956" stop-color="#7F7F7F"/><stop offset="1" stop-color="#666"/></linearGradient><linearGradient id="paint1_linear_119_76" x1="54.135" y1="49.892" x2="88.924" y2="41.517" gradientUnits="userSpaceOnUse"><stop stop-color="#666"/><stop offset=".014" stop-color="#6C6C6C"/><stop offset=".113" stop-color="#939393"/><stop offset=".219" stop-color="#B4B4B4"/><stop offset=".332" stop-color="#D0D0D0"/><stop offset=".455" stop-color="#E5E5E5"/><stop offset=".591" stop-color="#F4F4F4"/><stop offset=".752" stop-color="#FCFCFC"/><stop offset="1" stop-color="#fff"/></linearGradient></defs></svg>